<svg id="visual" viewBox="0 0 900 600" width="900" height="600" xmlns="http://www.w3.org/2000/svg" xmlns:xlink="http://www.w3.org/1999/xlink" version="1.1"><rect x="0" y="0" width="900" height="600" fill="#001220"></rect><defs><linearGradient id="grad1_0" x1="33.3%" y1="0%" x2="100%" y2="100%"><stop offset="20%" stop-color="#001220" stop-opacity="1"></stop><stop offset="80%" stop-color="#001220" stop-opacity="1"></stop></linearGradient></defs><defs><linearGradient id="grad2_0" x1="0%" y1="0%" x2="66.7%" y2="100%"><stop offset="20%" stop-color="#001220" stop-opacity="1"></stop><stop offset="80%" stop-color="#001220" stop-opacity="1"></stop></linearGradient></defs><g transform="translate(900, 0)"><path d="M0 486.7C-25.8 480.6 -51.7 474.4 -72 454.3C-92.2 434.2 -107 400.2 -124.5 383.3C-142.1 366.4 -162.4 366.6 -187.5 368C-212.6 369.4 -242.4 372 -262.7 361.6C-283 351.2 -293.8 327.9 -308.3 308.3C-322.8 288.7 -341.1 273 -345.5 251C-349.8 228.9 -340.3 200.6 -363.5 185.2C-386.8 169.9 -442.8 167.6 -462.9 150.4C-483 133.2 -467.2 101.2 -465.2 73.7C-463.2 46.1 -475 23.1 -486.7 0L0 0Z" fill="#FBAE3C"></path></g><g transform="translate(0, 600)"><path d="M0 -486.7C23.8 -477.8 47.6 -468.8 74.3 -469.2C101 -469.5 130.7 -479 150.4 -462.9C170.1 -446.8 179.7 -405.1 192.9 -378.7C206.1 -352.2 222.9 -341.1 236.3 -325.2C249.7 -309.4 259.8 -288.8 275.1 -275.1C290.3 -261.3 310.8 -254.4 341.4 -248C372 -241.7 412.7 -235.9 420.6 -214.3C428.4 -192.6 403.4 -155 393.7 -127.9C384.1 -100.8 389.8 -84.2 407.9 -64.6C426 -45 456.4 -22.5 486.7 0L0 0Z" fill="#FBAE3C"></path></g></svg>